<svg width="512" height="512" viewBox="0 0 512 512" fill="none" xmlns="http://www.w3.org/2000/svg">
  <rect width="512" height="512" rx="104" fill="#ffffff" />
  <defs>
    <polygon id="fav-arrow"
      points="152,0 78,-50 78,-29 -78,-29 -78,-50 -152,0 -78,50 -78,29 78,29 78,50"
      fill="#15245c" />
  </defs>
  <use href="#fav-arrow" transform="translate(256 256) rotate(45)" />
  <use href="#fav-arrow" transform="translate(256 256) rotate(-45)" />
  <g transform="translate(150 150) rotate(-28) scale(1.12)">
    <path d="M-3 2 C -14 -20, 16 -20, 6 2" stroke="#15245c" stroke-width="9"
          fill="none" stroke-linecap="round" />
    <path d="M0 0 L30 20 Q40 27 40 40 L40 98 Q40 112 26 112 L-26 112
             Q-40 112 -40 98 L-40 40 Q-40 27 -30 20 Z" fill="#2bd44f" />
    <circle cx="0" cy="34" r="11" fill="#f5e11a" />
  </g>
</svg>
